<mxfile host="app.diagrams.net" modified="2020-08-11T23:49:32.959Z" agent="5.0 (Windows)" etag="Jngq8CQMuO4ZL3tqRWBv" version="13.6.2" type="github">
  <diagram id="B-HTD6-59O2DYrOQF8Mw" name="Page-1">
    <mxGraphModel dx="1102" dy="583" grid="1" gridSize="10" guides="1" tooltips="1" connect="1" arrows="1" fold="1" page="1" pageScale="1" pageWidth="827" pageHeight="1169" math="0" shadow="0">
      <root>
        <mxCell id="0" />
        <mxCell id="1" parent="0" />
        <mxCell id="pB9QoSnaGpSnynzOfaau-7" value="" style="edgeStyle=orthogonalEdgeStyle;rounded=0;orthogonalLoop=1;jettySize=auto;html=1;" edge="1" parent="1" source="pB9QoSnaGpSnynzOfaau-1" target="pB9QoSnaGpSnynzOfaau-2">
          <mxGeometry relative="1" as="geometry" />
        </mxCell>
        <mxCell id="pB9QoSnaGpSnynzOfaau-1" value="Escrever seu Antecessor" style="rounded=0;whiteSpace=wrap;html=1;" vertex="1" parent="1">
          <mxGeometry x="270" y="10" width="250" height="60" as="geometry" />
        </mxCell>
        <mxCell id="pB9QoSnaGpSnynzOfaau-8" value="" style="edgeStyle=orthogonalEdgeStyle;rounded=0;orthogonalLoop=1;jettySize=auto;html=1;" edge="1" parent="1" source="pB9QoSnaGpSnynzOfaau-2" target="pB9QoSnaGpSnynzOfaau-5">
          <mxGeometry relative="1" as="geometry" />
        </mxCell>
        <mxCell id="pB9QoSnaGpSnynzOfaau-2" value="Inicio" style="ellipse;whiteSpace=wrap;html=1;" vertex="1" parent="1">
          <mxGeometry x="305" y="110" width="180" height="80" as="geometry" />
        </mxCell>
        <mxCell id="pB9QoSnaGpSnynzOfaau-4" value="Fim" style="ellipse;whiteSpace=wrap;html=1;" vertex="1" parent="1">
          <mxGeometry x="312.5" y="690" width="165" height="80" as="geometry" />
        </mxCell>
        <mxCell id="pB9QoSnaGpSnynzOfaau-19" value="" style="edgeStyle=orthogonalEdgeStyle;rounded=0;orthogonalLoop=1;jettySize=auto;html=1;" edge="1" parent="1" source="pB9QoSnaGpSnynzOfaau-5" target="pB9QoSnaGpSnynzOfaau-13">
          <mxGeometry relative="1" as="geometry" />
        </mxCell>
        <mxCell id="pB9QoSnaGpSnynzOfaau-5" value="leia(Digite um numero)" style="shape=parallelogram;perimeter=parallelogramPerimeter;whiteSpace=wrap;html=1;fixedSize=1;" vertex="1" parent="1">
          <mxGeometry x="280" y="230" width="230" height="60" as="geometry" />
        </mxCell>
        <mxCell id="pB9QoSnaGpSnynzOfaau-17" value="" style="edgeStyle=orthogonalEdgeStyle;rounded=0;orthogonalLoop=1;jettySize=auto;html=1;" edge="1" parent="1" source="pB9QoSnaGpSnynzOfaau-9" target="pB9QoSnaGpSnynzOfaau-10">
          <mxGeometry relative="1" as="geometry" />
        </mxCell>
        <mxCell id="pB9QoSnaGpSnynzOfaau-9" value="numero = (digite um numero - 1 )" style="rounded=0;whiteSpace=wrap;html=1;" vertex="1" parent="1">
          <mxGeometry x="287.5" y="450" width="215" height="60" as="geometry" />
        </mxCell>
        <mxCell id="pB9QoSnaGpSnynzOfaau-18" value="" style="edgeStyle=orthogonalEdgeStyle;rounded=0;orthogonalLoop=1;jettySize=auto;html=1;" edge="1" parent="1" source="pB9QoSnaGpSnynzOfaau-10" target="pB9QoSnaGpSnynzOfaau-4">
          <mxGeometry relative="1" as="geometry" />
        </mxCell>
        <mxCell id="pB9QoSnaGpSnynzOfaau-10" value="Exibir o valor de numero" style="shape=document;whiteSpace=wrap;html=1;boundedLbl=1;" vertex="1" parent="1">
          <mxGeometry x="316.25" y="560" width="157.5" height="80" as="geometry" />
        </mxCell>
        <mxCell id="pB9QoSnaGpSnynzOfaau-15" style="edgeStyle=orthogonalEdgeStyle;rounded=0;orthogonalLoop=1;jettySize=auto;html=1;" edge="1" parent="1" source="pB9QoSnaGpSnynzOfaau-11" target="pB9QoSnaGpSnynzOfaau-4">
          <mxGeometry relative="1" as="geometry">
            <mxPoint x="710" y="740" as="targetPoint" />
            <Array as="points">
              <mxPoint x="710" y="730" />
            </Array>
          </mxGeometry>
        </mxCell>
        <mxCell id="pB9QoSnaGpSnynzOfaau-11" value="Numero nÃ£o pode ser 0" style="shape=document;whiteSpace=wrap;html=1;boundedLbl=1;" vertex="1" parent="1">
          <mxGeometry x="630" y="350" width="120" height="80" as="geometry" />
        </mxCell>
        <mxCell id="pB9QoSnaGpSnynzOfaau-14" style="edgeStyle=orthogonalEdgeStyle;rounded=0;orthogonalLoop=1;jettySize=auto;html=1;entryX=0;entryY=0.338;entryDx=0;entryDy=0;entryPerimeter=0;" edge="1" parent="1" source="pB9QoSnaGpSnynzOfaau-13" target="pB9QoSnaGpSnynzOfaau-11">
          <mxGeometry relative="1" as="geometry" />
        </mxCell>
        <mxCell id="pB9QoSnaGpSnynzOfaau-16" value="" style="edgeStyle=orthogonalEdgeStyle;rounded=0;orthogonalLoop=1;jettySize=auto;html=1;" edge="1" parent="1" source="pB9QoSnaGpSnynzOfaau-13" target="pB9QoSnaGpSnynzOfaau-9">
          <mxGeometry relative="1" as="geometry" />
        </mxCell>
        <mxCell id="pB9QoSnaGpSnynzOfaau-13" value="Numero = 0" style="rhombus;whiteSpace=wrap;html=1;" vertex="1" parent="1">
          <mxGeometry x="295" y="340" width="200" height="80" as="geometry" />
        </mxCell>
      </root>
    </mxGraphModel>
  </diagram>
</mxfile>
